<?xml version="1.0" encoding="utf-8"?>
<!-- Generator: Adobe Illustrator 27.8.1, SVG Export Plug-In . SVG Version: 6.00 Build 0)  -->
<svg version="1.1" id="圖層_1" xmlns="http://www.w3.org/2000/svg" xmlns:xlink="http://www.w3.org/1999/xlink" x="0px" y="0px"
	 viewBox="0 0 100 74" style="enable-background:new 0 0 100 74;" xml:space="preserve">
<style type="text/css">
	.st0{fill:#1C1C1C;}
</style>
<path class="st0" d="M6.4,33.9h80.5c-0.1-0.1-0.2-0.3-0.3-0.4L59.7,6.7c-0.6-0.6-0.6-1.7,0-2.4c1.9-1.9,5.1-1.9,7,0l29.2,29.2
	c1.9,1.9,1.9,5.1,0,7L66.7,69.7c-1.9,1.9-5.1,1.9-7,0c-0.6-0.6-0.6-1.7,0-2.4l26-26H6.4c-2.1,0-3.7-1.7-3.7-3.7S4.3,33.9,6.4,33.9z"
	/>
</svg>
