<?xml version="1.0" encoding="utf-8"?>
<!-- Generator: Adobe Illustrator 27.8.1, SVG Export Plug-In . SVG Version: 6.00 Build 0)  -->
<svg version="1.1" id="圖層_1" xmlns="http://www.w3.org/2000/svg" xmlns:xlink="http://www.w3.org/1999/xlink" x="0px" y="0px"
	 viewBox="0 0 100 74" style="enable-background:new 0 0 100 74;" xml:space="preserve">
<style type="text/css">
	.st0{fill:#43FFCA;}
</style>
<path class="st0" d="M93.6,33.9H13.1c0.1-0.1,0.2-0.3,0.3-0.4L40.3,6.7c0.6-0.6,0.6-1.7,0-2.4c-1.9-1.9-5.1-1.9-7,0L4.1,33.5
	c-1.9,1.9-1.9,5.1,0,7l29.2,29.2c1.9,1.9,5.1,1.9,7,0c0.6-0.6,0.6-1.7,0-2.4l-26-26h79.3c2.1,0,3.7-1.7,3.7-3.7S95.7,33.9,93.6,33.9
	z"/>
</svg>
