<?xml version="1.0" encoding="utf-8"?>
<!-- Generator: Adobe Illustrator 27.8.1, SVG Export Plug-In . SVG Version: 6.00 Build 0)  -->
<svg version="1.1" id="圖層_1" xmlns="http://www.w3.org/2000/svg" xmlns:xlink="http://www.w3.org/1999/xlink" x="0px" y="0px"
	 viewBox="0 0 50 50" style="enable-background:new 0 0 50 50;" xml:space="preserve">
<style type="text/css">
	.st0{fill:#00FFC7;}
</style>
<path class="st0" d="M25,49.1C11.7,49.1,0.9,38.3,0.9,25S11.7,0.9,25,0.9S49.1,11.7,49.1,25S38.3,49.1,25,49.1z M25,3.9
	C13.4,3.9,3.9,13.4,3.9,25S13.4,46.1,25,46.1S46.1,36.6,46.1,25S36.6,3.9,25,3.9z"/>
<path class="st0" d="M29.1,39.3c-0.6,0-1.2-0.2-1.6-0.7L15.4,26.6c-0.9-0.9-0.9-2.3,0-3.2l12.1-12.1c0.4-0.4,1-0.7,1.6-0.7
	s1.2,0.2,1.6,0.7c0.4,0.4,0.7,1,0.7,1.6c0,0.6-0.2,1.2-0.7,1.6L20.1,25l10.5,10.5c0.9,0.9,0.9,2.3,0,3.1
	C30.2,39.1,29.6,39.3,29.1,39.3z"/>
<path class="st0" d="M29.1,38.3c-0.3,0-0.6-0.1-0.9-0.4L16.1,25.9c-0.5-0.5-0.5-1.3,0-1.7L28.2,12c0.5-0.5,1.3-0.5,1.7,0
	c0.5,0.5,0.5,1.3,0,1.7L18.7,25l11.2,11.2c0.5,0.5,0.5,1.3,0,1.7C29.7,38.2,29.4,38.3,29.1,38.3z"/>
</svg>
