<?xml version="1.0" encoding="utf-8"?>
<!-- Generator: Adobe Illustrator 27.8.1, SVG Export Plug-In . SVG Version: 6.00 Build 0)  -->
<svg version="1.1" id="圖層_1" xmlns="http://www.w3.org/2000/svg" xmlns:xlink="http://www.w3.org/1999/xlink" x="0px" y="0px"
	 viewBox="0 0 50 50" style="enable-background:new 0 0 50 50;" xml:space="preserve">
<style type="text/css">
	.st0{fill:#00FFC7;}
</style>
<path class="st0" d="M25,49.1C11.7,49.1,0.9,38.3,0.9,25S11.7,0.9,25,0.9S49.1,11.7,49.1,25S38.3,49.1,25,49.1z M25,3.9
	C13.4,3.9,3.9,13.4,3.9,25S13.4,46.1,25,46.1S46.1,36.6,46.1,25S36.6,3.9,25,3.9z"/>
<path class="st0" d="M27.9,36.5c-0.5,0-1-0.2-1.3-0.6l-9.7-9.7c-0.7-0.7-0.7-1.9,0-2.6l9.7-9.7c0.3-0.3,0.8-0.6,1.3-0.6
	c0.5,0,1,0.2,1.3,0.6c0.3,0.3,0.6,0.8,0.6,1.3c0,0.5-0.2,1-0.6,1.3L20.7,25l8.5,8.5c0.7,0.7,0.7,1.9,0,2.5
	C28.8,36.3,28.3,36.5,27.9,36.5z"/>
<path class="st0" d="M27.9,35.7c-0.2,0-0.5-0.1-0.7-0.3l-9.7-9.7c-0.4-0.4-0.4-1,0-1.4l9.7-9.8c0.4-0.4,1-0.4,1.4,0
	c0.4,0.4,0.4,1,0,1.4l-9,9.1l9,9c0.4,0.4,0.4,1,0,1.4C28.4,35.6,28.2,35.7,27.9,35.7z"/>
</svg>
